<svg width="640" height="480" xmlns="http://www.w3.org/2000/svg" xmlns:svg="http://www.w3.org/2000/svg">
 <!-- Created with SVG-edit - http://svg-edit.googlecode.com/ -->
 <g>
  <title>Layer 1</title>
  <path stroke="#000000" id="svg_4" transform="rotate(-151.43157958984375 563.796875,95.9499969482422) " fill="#1471c9" stroke-width="0" stroke-dasharray="null" stroke-linejoin="null" stroke-linecap="null" d="m531.70262,145.16766l0,-98.43534l64.18845,98.43534l-64.18845,0z"/>
  <path id="svg_5" stroke="#000000" transform="rotate(-110.93904876708984 171.13041687011713,309.99999999999994) " fill="#41678c" stroke-width="0" stroke-dasharray="null" stroke-linejoin="null" stroke-linecap="null" d="m139.03619,359.21767l0,-98.43534l64.18845,98.43534l-64.18845,0z"/>
  <path id="svg_6" stroke="#000000" transform="rotate(112.86280822753906 88.46375274658203,86.00000000000001) " fill="#437db2" stroke-width="0" stroke-dasharray="null" stroke-linejoin="null" stroke-linecap="null" d="m56.36953,135.21766l0,-98.43534l64.18845,98.43534l-64.18845,0z"/>
  <path id="svg_7" stroke="#000000" transform="rotate(149.72142028808594 235.1304168701172,124.66665649414061) " fill="#437db2" stroke-width="0" stroke-dasharray="null" stroke-linejoin="null" stroke-linecap="null" d="m203.03619,173.88433l0,-98.43534l64.18845,98.43534l-64.18845,0z"/>
  <path id="svg_8" stroke="#000000" transform="rotate(135.13058471679688 522.6666870117188,432.96783447265625) " fill="#437db2" stroke-width="0" stroke-dasharray="null" stroke-linejoin="null" stroke-linecap="null" d="m490.57245,482.18548l0,-98.43534l64.18845,98.43534l-64.18845,0z"/>
  <path id="svg_9" stroke="#000000" transform="rotate(-45.93244934082031 309.33331298828125,408.96783447265625) " fill="#41678c" stroke-width="0" stroke-dasharray="null" stroke-linejoin="null" stroke-linecap="null" d="m277.23911,458.18548l0,-98.43534l64.18845,98.43534l-64.18845,0z"/>
  <path id="svg_10" stroke="#000000" transform="rotate(101.5614242553711 390.6666564941406,226.3011322021484) " fill="#41678c" stroke-width="0" stroke-dasharray="null" stroke-linejoin="null" stroke-linecap="null" d="m358.57244,275.51881l0,-98.43534l64.18845,98.43534l-64.18845,0z"/>
  <path id="svg_11" stroke="#000000" transform="rotate(-92.20589447021484 378.66668701171875,87.63447570800781) " fill="#41678c" stroke-width="0" stroke-dasharray="null" stroke-linejoin="null" stroke-linecap="null" d="m346.57244,136.85214l0,-98.43534l64.18845,98.43534l-64.18845,0z"/>
  <path id="svg_12" stroke="#000000" transform="rotate(42.410667419433594 69.33332824707043,276.96780395507807) " fill="#437db2" stroke-width="0" stroke-dasharray="null" stroke-linejoin="null" stroke-linecap="null" d="m37.23911,326.18548l0,-98.43534l64.18845,98.43534l-64.18845,0z"/>
  <path id="svg_13" stroke="#000000" transform="rotate(126.71621704101562 81.33332824707034,428.96780395507807) " fill="#1471c9" stroke-width="0" stroke-dasharray="null" stroke-linejoin="null" stroke-linecap="null" d="m49.23911,478.18547l0,-98.43534l64.18845,98.43534l-64.18845,0z"/>
  <path id="svg_14" stroke="#000000" transform="rotate(133.99388122558594 165.33334350585935,196.96780395507812) " fill="#1471c9" stroke-width="0" stroke-dasharray="null" stroke-linejoin="null" stroke-linecap="null" d="m133.23911,246.18548l0,-98.43534l64.18845,98.43534l-64.18845,0z"/>
  <path id="svg_15" stroke="#000000" transform="rotate(-108.37623596191406 552,272.9678039550782) " fill="#41678c" stroke-width="0" stroke-dasharray="null" stroke-linejoin="null" stroke-linecap="null" d="m519.90578,322.18548l0,-98.43534l64.18845,98.43534l-64.18845,0z"/>
  <path id="svg_16" stroke="#000000" transform="rotate(159.66746520996094 385.33331298828125,350.3011474609375) " fill="#1471c9" stroke-width="0" stroke-dasharray="null" stroke-linejoin="null" stroke-linecap="null" d="m353.2391,399.51881l0,-98.43534l64.18845,98.43534l-64.18845,0z"/>
 </g>
</svg>